<mxfile host="app.diagrams.net" modified="2025-06-11T00:00:00.000Z" agent="draw.io" etag="example" version="24.0.0">
  <diagram name="NeuroLM Architecture" id="NeuroLM-System">
    <mxGraphModel dx="2074" dy="1106" grid="1" gridSize="10" guides="1" tooltips="1" connect="1" arrows="1" fold="1" page="1" pageScale="1" pageWidth="1654" pageHeight="2339" math="0" shadow="0">
      <root>
        <mxCell id="0" />
        <mxCell id="1" parent="0" />
        
        <mxCell id="title" value="NeuroLM: Multi-Modal Foundation Model Architecture" style="text;html=1;align=center;verticalAlign=middle;whiteSpace=wrap;rounded=0;fontSize=20;fontStyle=1;fillColor=#dae8fc;strokeColor=#6c8ebf;" vertex="1" parent="1">
          <mxGeometry x="400" y="20" width="600" height="40" as="geometry" />
        </mxCell>

        <mxCell id="training-title" value="Training Pipeline" style="text;html=1;align=center;verticalAlign=middle;whiteSpace=wrap;rounded=0;fontSize=16;fontStyle=1;fillColor=#e1d5e7;strokeColor=#9673a6;" vertex="1" parent="1">
          <mxGeometry x="50" y="80" width="200" height="30" as="geometry" />
        </mxCell>

        <mxCell id="stage1" value="Stage 1: VQ Tokenizer Training&lt;br&gt;(train_vq.py)&lt;br&gt;&lt;br&gt;• Vector Quantized Reconstruction&lt;br&gt;• Frequency + Raw Signal Loss&lt;br&gt;• Text Alignment" style="rounded=1;whiteSpace=wrap;html=1;fontSize=12;fillColor=#fff2cc;strokeColor=#d6b656;verticalAlign=top;" vertex="1" parent="1">
          <mxGeometry x="50" y="120" width="200" height="100" as="geometry" />
        </mxCell>

        <mxCell id="stage2" value="Stage 2: NeuroLM Pre-training&lt;br&gt;(train_pretrain.py)&lt;br&gt;&lt;br&gt;• Multi-channel Autoregressive&lt;br&gt;• Frozen VQ Tokenizer&lt;br&gt;• GPT-2 Backbone Training" style="rounded=1;whiteSpace=wrap;html=1;fontSize=12;fillColor=#fff2cc;strokeColor=#d6b656;verticalAlign=top;" vertex="1" parent="1">
          <mxGeometry x="50" y="240" width="200" height="100" as="geometry" />
        </mxCell>

        <mxCell id="stage3" value="Stage 3: Instruction Tuning&lt;br&gt;(train_instruction.py)&lt;br&gt;&lt;br&gt;• Multi-task Learning&lt;br&gt;• Downstream Tasks&lt;br&gt;• EEG-Text Generation" style="rounded=1;whiteSpace=wrap;html=1;fontSize=12;fillColor=#fff2cc;strokeColor=#d6b656;verticalAlign=top;" vertex="1" parent="1">
          <mxGeometry x="50" y="360" width="200" height="100" as="geometry" />
        </mxCell>

        <mxCell id="arrow1" value="" style="endArrow=classic;html=1;rounded=0;exitX=0.5;exitY=1;exitDx=0;exitDy=0;entryX=0.5;entryY=0;entryDx=0;entryDy=0;" edge="1" parent="1" source="stage1" target="stage2">
          <mxGeometry width="50" height="50" relative="1" as="geometry">
            <mxPoint x="400" y="300" as="sourcePoint" />
            <mxPoint x="450" y="250" as="targetPoint" />
          </mxGeometry>
        </mxCell>

        <mxCell id="arrow2" value="" style="endArrow=classic;html=1;rounded=0;exitX=0.5;exitY=1;exitDx=0;exitDy=0;entryX=0.5;entryY=0;entryDx=0;entryDy=0;" edge="1" parent="1" source="stage2" target="stage3">
          <mxGeometry width="50" height="50" relative="1" as="geometry">
            <mxPoint x="400" y="400" as="sourcePoint" />
            <mxPoint x="450" y="350" as="targetPoint" />
          </mxGeometry>
        </mxCell>

        <mxCell id="arch-title" value="Model Architecture" style="text;html=1;align=center;verticalAlign=middle;whiteSpace=wrap;rounded=0;fontSize=16;fontStyle=1;fillColor=#e1d5e7;strokeColor=#9673a6;" vertex="1" parent="1">
          <mxGeometry x="350" y="80" width="200" height="30" as="geometry" />
        </mxCell>

        <mxCell id="eeg-input" value="Raw EEG Signals&lt;br&gt;[B, N_channels, Time]&lt;br&gt;&lt;br&gt;• Standard 10-20 System&lt;br&gt;• Up to 256 channels&lt;br&gt;• 200Hz sampling&lt;br&gt;• μV units" style="rounded=1;whiteSpace=wrap;html=1;fontSize=11;fillColor=#d5e8d4;strokeColor=#82b366;verticalAlign=top;" vertex="1" parent="1">
          <mxGeometry x="350" y="120" width="150" height="100" as="geometry" />
        </mxCell>

        <mxCell id="text-input" value="Text Tokens&lt;br&gt;[B, Seq_len]&lt;br&gt;&lt;br&gt;• GPT-2 Tokenizer&lt;br&gt;• Vocab: 50,257&lt;br&gt;• Natural Language" style="rounded=1;whiteSpace=wrap;html=1;fontSize=11;fillColor=#d5e8d4;strokeColor=#82b366;verticalAlign=top;" vertex="1" parent="1">
          <mxGeometry x="520" y="120" width="150" height="100" as="geometry" />
        </mxCell>

        <mxCell id="vq-title" value="VQ Tokenizer (Frozen in Stage 2+)" style="text;html=1;align=center;verticalAlign=middle;whiteSpace=wrap;rounded=0;fontSize=14;fontStyle=1;fillColor=#fad7ac;strokeColor=#b46504;" vertex="1" parent="1">
          <mxGeometry x="350" y="250" width="320" height="25" as="geometry" />
        </mxCell>

        <mxCell id="temporal-conv" value="TemporalConv&lt;br&gt;(Patch Embedding)&lt;br&gt;&lt;br&gt;• Conv2D(1,16): k=(1,15), s=(1,8)&lt;br&gt;• Conv2D(16,16): k=(1,3)&lt;br&gt;• Conv2D(16,16): k=(1,3)&lt;br&gt;• Linear(400, 768)" style="rounded=1;whiteSpace=wrap;html=1;fontSize=10;fillColor=#fad7ac;strokeColor=#b46504;verticalAlign=top;" vertex="1" parent="1">
          <mxGeometry x="350" y="285" width="150" height="110" as="geometry" />
        </mxCell>

        <mxCell id="nt-encoder" value="NeuralTransformer&lt;br&gt;Encoder&lt;br&gt;&lt;br&gt;• 12 Transformer Blocks&lt;br&gt;• 10 Attention Heads&lt;br&gt;• Hidden: 400&lt;br&gt;• Pos + Time Embedding" style="rounded=1;whiteSpace=wrap;html=1;fontSize=10;fillColor=#fad7ac;strokeColor=#b46504;verticalAlign=top;" vertex="1" parent="1">
          <mxGeometry x="520" y="285" width="150" height="110" as="geometry" />
        </mxCell>

        <mxCell id="quantizer" value="Vector Quantizer&lt;br&gt;(NormEMAVectorQuantizer)&lt;br&gt;&lt;br&gt;• Codebook: 8192 tokens&lt;br&gt;• Embedding dim: 128&lt;br&gt;• EMA decay: 0.99&lt;br&gt;• Discrete Neural Tokens" style="rounded=1;whiteSpace=wrap;html=1;fontSize=10;fillColor=#fad7ac;strokeColor=#b46504;verticalAlign=top;" vertex="1" parent="1">
          <mxGeometry x="350" y="415" width="150" height="110" as="geometry" />
        </mxCell>

        <mxCell id="decoder-freq" value="Frequency Decoder&lt;br&gt;(NeuralTransformer)&lt;br&gt;&lt;br&gt;• Reconstructs FFT&lt;br&gt;• Output: [B,N,100]" style="rounded=1;whiteSpace=wrap;html=1;fontSize=10;fillColor=#fad7ac;strokeColor=#b46504;verticalAlign=top;" vertex="1" parent="1">
          <mxGeometry x="520" y="415" width="120" height="80" as="geometry" />
        </mxCell>

        <mxCell id="decoder-raw" value="Raw Decoder&lt;br&gt;(NeuralTransformer)&lt;br&gt;&lt;br&gt;• Reconstructs Time&lt;br&gt;• Output: [B,N,200]" style="rounded=1;whiteSpace=wrap;html=1;fontSize=10;fillColor=#fad7ac;strokeColor=#b46504;verticalAlign=top;" vertex="1" parent="1">
          <mxGeometry x="650" y="415" width="120" height="80" as="geometry" />
        </mxCell>

        <mxCell id="neurolm-title" value="NeuroLM Main Model" style="text;html=1;align=center;verticalAlign=middle;whiteSpace=wrap;rounded=0;fontSize=14;fontStyle=1;fillColor=#f8cecc;strokeColor=#b85450;" vertex="1" parent="1">
          <mxGeometry x="350" y="550" width="520" height="25" as="geometry" />
        </mxCell>

        <mxCell id="transform" value="EEG Transform Layer&lt;br&gt;&lt;br&gt;• Linear(n_embd, gpt_embd)&lt;br&gt;• GELU Activation&lt;br&gt;• Maps VQ to GPT space" style="rounded=1;whiteSpace=wrap;html=1;fontSize=10;fillColor=#f8cecc;strokeColor=#b85450;verticalAlign=top;" vertex="1" parent="1">
          <mxGeometry x="350" y="585" width="150" height="80" as="geometry" />
        </mxCell>

        <mxCell id="pos-embed" value="Channel Position&lt;br&gt;Embeddings&lt;br&gt;&lt;br&gt;• 256 max channels&lt;br&gt;• Maps to GPT dim&lt;br&gt;• Standard 10-20" style="rounded=1;whiteSpace=wrap;html=1;fontSize=10;fillColor=#f8cecc;strokeColor=#b85450;verticalAlign=top;" vertex="1" parent="1">
          <mxGeometry x="520" y="585" width="130" height="80" as="geometry" />
        </mxCell>

        <mxCell id="text-embed" value="Text Token&lt;br&gt;Embeddings&lt;br&gt;&lt;br&gt;• GPT-2 vocab: 50,257&lt;br&gt;• + EEG vocab: 8,192&lt;br&gt;• Total: 58,449" style="rounded=1;whiteSpace=wrap;html=1;fontSize=10;fillColor=#f8cecc;strokeColor=#b85450;verticalAlign=top;" vertex="1" parent="1">
          <mxGeometry x="670" y="585" width="130" height="80" as="geometry" />
        </mxCell>

        <mxCell id="gpt-core" value="Modified GPT-2 Transformer&lt;br&gt;&lt;br&gt;• Multi-modal input handling&lt;br&gt;• EEG + Text tokens&lt;br&gt;• Causal attention with masks&lt;br&gt;• 12 layers, 12 heads, 768 hidden&lt;br&gt;• Enlarged vocabulary (58,449)&lt;br&gt;• Cross-modal generation" style="rounded=1;whiteSpace=wrap;html=1;fontSize=11;fillColor=#dae8fc;strokeColor=#6c8ebf;verticalAlign=top;" vertex="1" parent="1">
          <mxGeometry x="350" y="690" width="320" height="120" as="geometry" />
        </mxCell>

        <mxCell id="lm-head" value="Language Model Head&lt;br&gt;&lt;br&gt;• Linear(768, 58449)&lt;br&gt;• Text + EEG generation&lt;br&gt;• Cross-entropy loss" style="rounded=1;whiteSpace=wrap;html=1;fontSize=11;fillColor=#dae8fc;strokeColor=#6c8ebf;verticalAlign=top;" vertex="1" parent="1">
          <mxGeometry x="350" y="830" width="200" height="80" as="geometry" />
        </mxCell>

        <mxCell id="output" value="Generated Text&lt;br&gt;&lt;br&gt;• Natural language&lt;br&gt;• EEG interpretations&lt;br&gt;• Multi-task outputs" style="rounded=1;whiteSpace=wrap;html=1;fontSize=11;fillColor=#d5e8d4;strokeColor=#82b366;verticalAlign=top;" vertex="1" parent="1">
          <mxGeometry x="580" y="830" width="150" height="80" as="geometry" />
        </mxCell>

        <mxCell id="eeg-flow1" value="" style="endArrow=classic;html=1;rounded=0;exitX=0.5;exitY=1;exitDx=0;exitDy=0;entryX=0.5;entryY=0;entryDx=0;entryDy=0;" edge="1" parent="1" source="eeg-input" target="temporal-conv">
          <mxGeometry width="50" height="50" relative="1" as="geometry">
            <mxPoint x="400" y="300" as="sourcePoint" />
            <mxPoint x="450" y="250" as="targetPoint" />
          </mxGeometry>
        </mxCell>

        <mxCell id="eeg-flow2" value="" style="endArrow=classic;html=1;rounded=0;exitX=1;exitY=0.5;exitDx=0;exitDy=0;entryX=0;entryY=0.5;entryDx=0;entryDy=0;" edge="1" parent="1" source="temporal-conv" target="nt-encoder">
          <mxGeometry width="50" height="50" relative="1" as="geometry">
            <mxPoint x="400" y="400" as="sourcePoint" />
            <mxPoint x="450" y="350" as="targetPoint" />
          </mxGeometry>
        </mxCell>

        <mxCell id="eeg-flow3" value="" style="endArrow=classic;html=1;rounded=0;exitX=0.5;exitY=1;exitDx=0;exitDy=0;entryX=1;entryY=0;entryDx=0;entryDy=0;" edge="1" parent="1" source="nt-encoder" target="quantizer">
          <mxGeometry width="50" height="50" relative="1" as="geometry">
            <mxPoint x="400" y="500" as="sourcePoint" />
            <mxPoint x="450" y="450" as="targetPoint" />
          </mxGeometry>
        </mxCell>

        <mxCell id="eeg-flow4" value="" style="endArrow=classic;html=1;rounded=0;exitX=0.5;exitY=1;exitDx=0;exitDy=0;entryX=0.5;entryY=0;entryDx=0;entryDy=0;" edge="1" parent="1" source="quantizer" target="transform">
          <mxGeometry width="50" height="50" relative="1" as="geometry">
            <mxPoint x="400" y="600" as="sourcePoint" />
            <mxPoint x="450" y="550" as="targetPoint" />
          </mxGeometry>
        </mxCell>

        <mxCell id="text-flow1" value="" style="endArrow=classic;html=1;rounded=0;exitX=0.5;exitY=1;exitDx=0;exitDy=0;entryX=0.5;entryY=0;entryDx=0;entryDy=0;" edge="1" parent="1" source="text-input" target="text-embed">
          <mxGeometry width="50" height="50" relative="1" as="geometry">
            <mxPoint x="400" y="300" as="sourcePoint" />
            <mxPoint x="450" y="250" as="targetPoint" />
          </mxGeometry>
        </mxCell>

        <mxCell id="conv1" value="" style="endArrow=classic;html=1;rounded=0;exitX=0.5;exitY=1;exitDx=0;exitDy=0;entryX=0;entryY=0;entryDx=0;entryDy=0;" edge="1" parent="1" source="transform" target="gpt-core">
          <mxGeometry width="50" height="50" relative="1" as="geometry">
            <mxPoint x="400" y="700" as="sourcePoint" />
            <mxPoint x="450" y="650" as="targetPoint" />
          </mxGeometry>
        </mxCell>

        <mxCell id="conv2" value="" style="endArrow=classic;html=1;rounded=0;exitX=0.5;exitY=1;exitDx=0;exitDy=0;entryX=0.25;entryY=0;entryDx=0;entryDy=0;" edge="1" parent="1" source="pos-embed" target="gpt-core">
          <mxGeometry width="50" height="50" relative="1" as="geometry">
            <mxPoint x="400" y="700" as="sourcePoint" />
            <mxPoint x="450" y="650" as="targetPoint" />
          </mxGeometry>
        </mxCell>

        <mxCell id="conv3" value="" style="endArrow=classic;html=1;rounded=0;exitX=0.5;exitY=1;exitDx=0;exitDy=0;entryX=1;entryY=0;entryDx=0;entryDy=0;" edge="1" parent="1" source="text-embed" target="gpt-core">
          <mxGeometry width="50" height="50" relative="1" as="geometry">
            <mxPoint x="400" y="700" as="sourcePoint" />
            <mxPoint x="450" y="650" as="targetPoint" />
          </mxGeometry>
        </mxCell>

        <mxCell id="out-flow1" value="" style="endArrow=classic;html=1;rounded=0;exitX=0.5;exitY=1;exitDx=0;exitDy=0;entryX=0;entryY=0.5;entryDx=0;entryDy=0;" edge="1" parent="1" source="gpt-core" target="lm-head">
          <mxGeometry width="50" height="50" relative="1" as="geometry">
            <mxPoint x="400" y="850" as="sourcePoint" />
            <mxPoint x="450" y="800" as="targetPoint" />
          </mxGeometry>
        </mxCell>

        <mxCell id="out-flow2" value="" style="endArrow=classic;html=1;rounded=0;exitX=1;exitY=0.5;exitDx=0;exitDy=0;entryX=0;entryY=0.5;entryDx=0;entryDy=0;" edge="1" parent="1" source="lm-head" target="output">
          <mxGeometry width="50" height="50" relative="1" as="geometry">
            <mxPoint x="400" y="900" as="sourcePoint" />
            <mxPoint x="450" y="850" as="targetPoint" />
          </mxGeometry>
        </mxCell>

        <mxCell id="vq-dec1" value="" style="endArrow=classic;html=1;rounded=0;exitX=1;exitY=0.5;exitDx=0;exitDy=0;entryX=0;entryY=0.5;entryDx=0;entryDy=0;" edge="1" parent="1" source="quantizer" target="decoder-freq">
          <mxGeometry width="50" height="50" relative="1" as="geometry">
            <mxPoint x="400" y="500" as="sourcePoint" />
            <mxPoint x="450" y="450" as="targetPoint" />
          </mxGeometry>
        </mxCell>

        <mxCell id="vq-dec2" value="" style="endArrow=classic;html=1;rounded=0;exitX=1;exitY=0.75;exitDx=0;exitDy=0;entryX=0;entryY=0.5;entryDx=0;entryDy=0;" edge="1" parent="1" source="quantizer" target="decoder-raw">
          <mxGeometry width="50" height="50" relative="1" as="geometry">
            <mxPoint x="400" y="500" as="sourcePoint" />
            <mxPoint x="450" y="450" as="targetPoint" />
          </mxGeometry>
        </mxCell>

        <mxCell id="features-title" value="Key Features &amp; Capabilities" style="text;html=1;align=center;verticalAlign=middle;whiteSpace=wrap;rounded=0;fontSize=14;fontStyle=1;fillColor=#e1d5e7;strokeColor=#9673a6;" vertex="1" parent="1">
          <mxGeometry x="900" y="80" width="200" height="25" as="geometry" />
        </mxCell>

        <mxCell id="features" value="🧠 Neural Tokenization&lt;br&gt;• Vector quantized EEG encoding&lt;br&gt;• 8,192 discrete neural tokens&lt;br&gt;• Frequency + temporal reconstruction&lt;br&gt;&lt;br&gt;🔄 Multi-Modal Processing&lt;br&gt;• EEG as &quot;foreign language&quot;&lt;br&gt;• Unified text + neural tokens&lt;br&gt;• Cross-modal attention&lt;br&gt;&lt;br&gt;🎯 Multi-Task Learning&lt;br&gt;• Classification tasks&lt;br&gt;• EEG-to-text generation&lt;br&gt;• Instruction following&lt;br&gt;&lt;br&gt;📊 EEG Support&lt;br&gt;• Standard 10-20 electrode system&lt;br&gt;• Up to 256 channels&lt;br&gt;• 200Hz sampling rate&lt;br&gt;• Robust preprocessing pipeline&lt;br&gt;&lt;br&gt;🚀 Training Strategy&lt;br&gt;• Stage 1: VQ pre-training&lt;br&gt;• Stage 2: Autoregressive pre-training&lt;br&gt;• Stage 3: Instruction tuning&lt;br&gt;• Frozen tokenizer in later stages" style="rounded=1;whiteSpace=wrap;html=1;fontSize=11;fillColor=#f5f5f5;strokeColor=#666666;verticalAlign=top;align=left;" vertex="1" parent="1">
          <mxGeometry x="900" y="115" width="280" height="350" as="geometry" />
        </mxCell>

        <mxCell id="variants-title" value="Model Variants" style="text;html=1;align=center;verticalAlign=middle;whiteSpace=wrap;rounded=0;fontSize=14;fontStyle=1;fillColor=#e1d5e7;strokeColor=#9673a6;" vertex="1" parent="1">
          <mxGeometry x="900" y="490" width="200" height="25" as="geometry" />
        </mxCell>

        <mxCell id="variants" value="🔹 NeuroLM-B (Base)&lt;br&gt;• 125M parameters&lt;br&gt;• 12 layers, 12 heads&lt;br&gt;• 768 hidden dimensions&lt;br&gt;&lt;br&gt;🔹 NeuroLM-L (Large)&lt;br&gt;• 350M parameters&lt;br&gt;• 24 layers, 16 heads&lt;br&gt;• 1024 hidden dimensions&lt;br&gt;&lt;br&gt;🔹 NeuroLM-XL (Extra Large)&lt;br&gt;• 760M parameters&lt;br&gt;• 24 layers, 20 heads&lt;br&gt;• 1280 hidden dimensions&lt;br&gt;&lt;br&gt;📁 Checkpoints Available&lt;br&gt;• VQ.pt - Vector Quantizer&lt;br&gt;• Pre-trained model weights&lt;br&gt;• HuggingFace integration" style="rounded=1;whiteSpace=wrap;html=1;fontSize=11;fillColor=#f5f5f5;strokeColor=#666666;verticalAlign=top;align=left;" vertex="1" parent="1">
          <mxGeometry x="900" y="525" width="280" height="220" as="geometry" />
        </mxCell>

        <mxCell id="data-title" value="Datasets &amp; Applications" style="text;html=1;align=center;verticalAlign=middle;whiteSpace=wrap;rounded=0;fontSize=14;fontStyle=1;fillColor=#e1d5e7;strokeColor=#9673a6;" vertex="1" parent="1">
          <mxGeometry x="900" y="770" width="200" height="25" as="geometry" />
        </mxCell>

        <mxCell id="datasets" value="📚 Training Data&lt;br&gt;• TUH (Temple University Hospital)&lt;br&gt;• Text corpus alignment&lt;br&gt;• Multi-channel EEG recordings&lt;br&gt;&lt;br&gt;🎯 Downstream Tasks&lt;br&gt;• TUAB - Abnormal EEG detection&lt;br&gt;• TUEV - EEG evaluation&lt;br&gt;• TUSL - Sleep staging&lt;br&gt;• HMC - Motor imagery&lt;br&gt;• SEED - Emotion recognition&lt;br&gt;• Workload assessment&lt;br&gt;&lt;br&gt;🔬 Research Applications&lt;br&gt;• Brain-Computer Interfaces&lt;br&gt;• Clinical diagnosis&lt;br&gt;• Neuroscience research&lt;br&gt;• Cross-modal understanding" style="rounded=1;whiteSpace=wrap;html=1;fontSize=11;fillColor=#f5f5f5;strokeColor=#666666;verticalAlign=top;align=left;" vertex="1" parent="1">
          <mxGeometry x="900" y="805" width="280" height="240" as="geometry" />
        </mxCell>

        <mxCell id="legend-title" value="Legend" style="text;html=1;align=center;verticalAlign=middle;whiteSpace=wrap;rounded=0;fontSize=12;fontStyle=1;" vertex="1" parent="1">
          <mxGeometry x="50" y="500" width="100" height="20" as="geometry" />
        </mxCell>

        <mxCell id="legend-training" value="Training Stage" style="rounded=1;whiteSpace=wrap;html=1;fontSize=10;fillColor=#fff2cc;strokeColor=#d6b656;" vertex="1" parent="1">
          <mxGeometry x="50" y="530" width="80" height="25" as="geometry" />
        </mxCell>

        <mxCell id="legend-vq" value="VQ Components" style="rounded=1;whiteSpace=wrap;html=1;fontSize=10;fillColor=#fad7ac;strokeColor=#b46504;" vertex="1" parent="1">
          <mxGeometry x="140" y="530" width="80" height="25" as="geometry" />
        </mxCell>

        <mxCell id="legend-neurolm" value="NeuroLM Core" style="rounded=1;whiteSpace=wrap;html=1;fontSize=10;fillColor=#f8cecc;strokeColor=#b85450;" vertex="1" parent="1">
          <mxGeometry x="50" y="565" width="80" height="25" as="geometry" />
        </mxCell>

        <mxCell id="legend-gpt" value="GPT Backbone" style="rounded=1;whiteSpace=wrap;html=1;fontSize=10;fillColor=#dae8fc;strokeColor=#6c8ebf;" vertex="1" parent="1">
          <mxGeometry x="140" y="565" width="80" height="25" as="geometry" />
        </mxCell>

        <mxCell id="legend-data" value="Input/Output" style="rounded=1;whiteSpace=wrap;html=1;fontSize=10;fillColor=#d5e8d4;strokeColor=#82b366;" vertex="1" parent="1">
          <mxGeometry x="50" y="600" width="80" height="25" as="geometry" />
        </mxCell>

      </root>
    </mxGraphModel>
  </diagram>
</mxfile>
